# xmcd CD database file
#
# Track frame offsets:
#	150
#	20779
#	36550
#	55121
#	72737
#	96131
#	117466
#	135053
#	153571
#	168317
#	187923
#	206954
#
# Disc length: 2989 seconds
#
# Revision: 0
# Processed by: cddbd v1.5.2PL0 Copyright (c) Steve Scherf et al.
# Submitted via: CDex 1.70beta2
#
DISCID=ae0bab0c
DTITLE=Svante Thuresson and Katrin Madsen - Box of Pearls
DYEAR=2006
DGENRE=Jazz
TTITLE0=Let´s fall in love
TTITLE1=We´ll be together again
TTITLE2=All the things you are
TTITLE3=How long has this been going on
TTITLE4=Estate
TTITLE5=Send in the clowns
TTITLE6=Kom saed dig her
TTITLE7=I remember Bill
TTITLE8=My shining hour
TTITLE9=What a difference a day made
TTITLE10=I fall in love too easily
TTITLE11=Surrey with the fringe on top
EXTD=YEAR: 2006
EXTT0=
EXTT1=
EXTT2=
EXTT3=
EXTT4=
EXTT5=
EXTT6=
EXTT7=
EXTT8=
EXTT9=
EXTT10=
EXTT11=
PLAYORDER=
